<svg width="26" height="21" viewBox="0 0 26 21" fill="none" xmlns="http://www.w3.org/2000/svg">
<path d="M12.7257 4.08862L3.64861 11.5717C3.64861 11.5823 3.64596 11.5978 3.64065 11.619C3.63545 11.64 3.63269 11.6553 3.63269 11.6661V19.2435C3.63269 19.5171 3.73271 19.7542 3.9327 19.9538C4.13264 20.1536 4.36942 20.2541 4.64306 20.2541H10.7048V14.192H14.7466V20.2543H20.8083C21.0819 20.2543 21.319 20.154 21.5186 19.9538C21.7186 19.7544 21.819 19.5171 21.819 19.2435V11.6661C21.819 11.624 21.8132 11.5923 21.8031 11.5717L12.7257 4.08862Z" fill="#B5B4B4"/>
<path d="M25.2757 9.86669L21.8186 6.99356V0.552658C21.8186 0.405407 21.7713 0.284321 21.6763 0.189548C21.5821 0.094883 21.461 0.047554 21.3134 0.047554H18.2825C18.1351 0.047554 18.014 0.094883 17.9192 0.189548C17.8246 0.284321 17.7773 0.405468 17.7773 0.552658V3.63098L13.9255 0.410442C13.5891 0.136795 13.1891 0 12.726 0C12.2629 0 11.863 0.136795 11.5262 0.410442L0.17542 9.86669C0.0701976 9.95074 0.012527 10.0639 0.0018002 10.206C-0.00887134 10.348 0.0278985 10.472 0.11222 10.5771L1.09096 11.7454C1.17528 11.84 1.28565 11.8979 1.4225 11.9191C1.54884 11.9297 1.67519 11.8928 1.80153 11.8086L12.7256 2.69957L23.6499 11.8086C23.7342 11.882 23.8446 11.9187 23.9814 11.9187H24.0288C24.1655 11.8979 24.2756 11.8396 24.3604 11.7452L25.3392 10.5771C25.4234 10.4717 25.4603 10.3479 25.4493 10.2057C25.4385 10.064 25.3806 9.9509 25.2757 9.86669Z" fill="#B5B4B4"/>
</svg>
