<svg width="20" height="21" viewBox="0 0 20 21" fill="none" xmlns="http://www.w3.org/2000/svg">
<path d="M19.2574 18.4485L14.4368 13.4349C15.6763 11.9615 16.3554 10.1076 16.3554 8.17768C16.3554 3.66858 12.6868 0 8.17768 0C3.66858 0 0 3.66858 0 8.17768C0 12.6868 3.66858 16.3554 8.17768 16.3554C9.87046 16.3554 11.4836 15.8448 12.8628 14.8756L17.72 19.9272C17.923 20.1381 18.196 20.2543 18.4887 20.2543C18.7656 20.2543 19.0284 20.1487 19.2279 19.9567C19.6517 19.5489 19.6652 18.8727 19.2574 18.4485ZM8.17768 2.13331C11.5106 2.13331 14.2221 4.84474 14.2221 8.17768C14.2221 11.5106 11.5106 14.2221 8.17768 14.2221C4.84474 14.2221 2.13331 11.5106 2.13331 8.17768C2.13331 4.84474 4.84474 2.13331 8.17768 2.13331Z" fill="white" fill-opacity="0.74902"/>
</svg>
