<svg width="23" height="23" viewBox="0 0 23 23" fill="none" xmlns="http://www.w3.org/2000/svg">
<path d="M19.1495 0H17.673C18.7277 0.32892 19.2761 1.18873 19.2761 2.46402V19.7006C19.2761 20.9759 18.7839 21.853 17.673 22.1646H19.1495C20.8159 22.1646 22.1589 21.0567 22.1589 19.7006V2.46402C22.1589 1.10794 20.8159 0 19.1495 0Z" fill="#C6C6C6"/>
<path d="M15.5356 0.0115409C15.4583 0.00577021 15.3811 0 15.3038 0H2.35655C1.05962 0 0 1.10794 0 2.46402V19.7006C0 21.0567 1.05962 22.1646 2.35655 22.1646H15.3093C15.3866 22.1646 15.4639 22.1589 15.5411 22.1531C16.7277 22.0319 17.6659 20.9759 17.6659 19.7006V2.46402C17.6604 1.18873 16.7222 0.132722 15.5356 0.0115409ZM7.94717 11.0794L4.8566 9.23286L1.76604 11.0794V1.84657H7.94717V11.0794Z" fill="#C6C6C6"/>
</svg>
